<?xml version="1.0" encoding="utf-8"?>
<!-- Generator: Adobe Illustrator 27.4.1, SVG Export Plug-In . SVG Version: 6.00 Build 0)  -->
<svg version="1.1" id="Capa_1" xmlns="http://www.w3.org/2000/svg" xmlns:xlink="http://www.w3.org/1999/xlink" x="0px" y="0px"
	 viewBox="0 0 462 90" style="enable-background:new 0 0 462 90;" xml:space="preserve">
<style type="text/css">
	.st0{fill:#00953B;}
	.st1{fill:#FFFFFF;}
	.st2{fill:#B62327;}
	.st3{fill-rule:evenodd;clip-rule:evenodd;fill:#00953B;}
	.st4{fill-rule:evenodd;clip-rule:evenodd;fill:#00A0DF;}
	.st5{fill-rule:evenodd;clip-rule:evenodd;fill:#898A8D;}
	.st6{fill:#FFE800;}
	.st7{fill:#898A8D;}
</style>
<g>
	<path class="st0" d="M260.71,39.68c0,3.92-2.85,6.95-6.81,6.95c-3.96,0-6.81-3.02-6.81-6.95c0-3.92,2.85-6.93,6.81-6.93
		C257.86,32.76,260.71,35.76,260.71,39.68z M258.1,39.68c0-2.22-1.44-4.46-4.21-4.46c-2.77,0-4.21,2.24-4.21,4.46
		c0,2.24,1.44,4.48,4.21,4.48C256.67,44.16,258.1,41.92,258.1,39.68z"/>
	<path class="st0" d="M265.73,36.68h1.4c0.38,0,0.69,0.31,0.69,0.69v0.84c0,0.38-0.31,0.69-0.69,0.69h-1.4v6.79
		c0,0.38-0.31,0.69-0.69,0.69h-1.05c-0.38,0-0.69-0.31-0.69-0.69V38.9h-0.69c-0.36,0-0.67-0.31-0.67-0.69v-0.84
		c0-0.38,0.31-0.69,0.67-0.69h0.69c0-1.99,0.88-3.94,3.5-3.94c0.23,0,0.38,0,0.54,0.02c0.27,0.02,0.48,0.23,0.48,0.5v1.05
		c0,0.27-0.23,0.5-0.5,0.52C266.14,34.84,265.73,35.53,265.73,36.68z"/>
	<path class="st0" d="M269.46,33.96c0-0.71,0.57-1.3,1.28-1.3c0.73,0,1.3,0.59,1.3,1.3c0,0.71-0.57,1.3-1.3,1.3
		C270.04,35.26,269.46,34.67,269.46,33.96z M269.54,45.69v-8.32c0-0.38,0.31-0.69,0.69-0.69h1.05c0.38,0,0.69,0.31,0.69,0.69v8.32
		c0,0.38-0.31,0.69-0.69,0.69h-1.05C269.85,46.38,269.54,46.07,269.54,45.69z"/>
	<path class="st0" d="M280.81,43.4c0.17-0.19,0.44-0.25,0.65-0.12l1.22,0.71c0.27,0.15,0.34,0.5,0.15,0.75
		c-0.92,1.15-2.35,1.87-4.02,1.87c-2.91,0-5.13-2.24-5.13-5.07c0-2.85,2.22-5.09,5.13-5.09c1.66,0,3.1,0.73,4.02,1.88
		c0.19,0.25,0.11,0.59-0.15,0.77l-1.22,0.69c-0.21,0.13-0.48,0.08-0.65-0.11c-0.46-0.54-1.13-0.88-1.99-0.88
		c-1.63,0-2.64,1.24-2.64,2.76c0,1.49,1.01,2.76,2.64,2.76C279.68,44.29,280.35,43.95,280.81,43.4z"/>
	<path class="st0" d="M284.54,33.96c0-0.71,0.57-1.3,1.28-1.3c0.73,0,1.3,0.59,1.3,1.3c0,0.71-0.57,1.3-1.3,1.3
		C285.11,35.26,284.54,34.67,284.54,33.96z M284.61,45.69v-8.32c0-0.38,0.31-0.69,0.69-0.69h1.05c0.38,0,0.69,0.31,0.69,0.69v8.32
		c0,0.38-0.31,0.69-0.69,0.69h-1.05C284.92,46.38,284.61,46.07,284.61,45.69z"/>
	<path class="st0" d="M298.14,40.49v5.2c0,0.38-0.31,0.69-0.69,0.69h-1.05c-0.38,0-0.69-0.31-0.69-0.69v-4.71
		c0-1.24-0.52-2.18-1.89-2.18c-1.43,0-2.07,1.05-2.07,2.18v4.71c0,0.38-0.31,0.69-0.67,0.69h-1.07c-0.36,0-0.67-0.31-0.67-0.69
		v-8.32c0-0.38,0.31-0.69,0.67-0.69h1.07c0.36,0,0.67,0.31,0.67,0.69v0.5c0.54-0.78,1.42-1.42,2.83-1.42
		C297.03,36.45,298.14,38.42,298.14,40.49z"/>
	<path class="st0" d="M308.37,36.68h1.05c0.38,0,0.69,0.31,0.69,0.69v8.32c0,0.38-0.31,0.69-0.69,0.69h-1.05
		c-0.38,0-0.69-0.31-0.69-0.69v-0.46c-0.61,0.8-1.59,1.38-3.1,1.38c-3,0-4.73-2.54-4.73-5.07c0-2.55,1.72-5.09,4.73-5.09
		c1.51,0,2.49,0.57,3.1,1.38v-0.46C307.68,36.99,307.99,36.68,308.37,36.68z M307.59,41.54c0-1.51-0.96-2.76-2.62-2.76
		s-2.62,1.26-2.62,2.76c0,1.47,0.96,2.76,2.62,2.76S307.59,43.03,307.59,41.54z"/>
	<path class="st0" d="M325.3,32.99h1.07c0.38,0,0.69,0.31,0.69,0.69v12.02c0,0.38-0.31,0.69-0.69,0.69h-1.07
		c-0.36,0-0.67-0.31-0.67-0.69v-0.46c-0.63,0.8-1.59,1.38-3.1,1.38c-3,0-4.73-2.54-4.73-5.07c0-2.55,1.72-5.09,4.73-5.09
		c1.51,0,2.47,0.57,3.1,1.38v-4.15C324.63,33.29,324.93,32.99,325.3,32.99z M324.51,41.54c0-1.51-0.94-2.76-2.6-2.76
		s-2.62,1.26-2.62,2.76c0,1.47,0.96,2.76,2.62,2.76S324.51,43.03,324.51,41.54z"/>
	<path class="st0" d="M338.59,41.81c0,0.36-0.31,0.67-0.67,0.67h-6.56c0.34,1.28,1.42,1.97,2.76,1.97c0.88,0,1.53-0.36,1.91-0.69
		c0.17-0.15,0.4-0.17,0.59-0.06l1.09,0.65c0.29,0.17,0.33,0.56,0.1,0.8c-0.84,0.84-2.14,1.45-3.69,1.45c-3.21,0-5.34-2.12-5.34-5.07
		c0-3.04,2.28-5.09,4.96-5.09C336.49,36.45,338.73,38.38,338.59,41.81z M336.18,40.6c-0.25-1.28-1.11-1.99-2.41-1.99
		c-1.19,0-2.12,0.75-2.41,1.99H336.18z"/>
	<path class="st0" d="M254.47,54.57h4.97c0.36,0,0.67,0.31,0.67,0.69v6.47c0,0.33-0.27,0.59-0.59,0.59H259
		c-0.27,0-0.5-0.19-0.57-0.44l-0.33-1.22c-0.96,1.19-2.37,1.89-4.31,1.89c-3.96,0-6.81-2.97-6.81-6.93c0-3.98,2.85-6.95,6.81-6.95
		c1.97,0,3.67,0.75,4.88,1.97c0.29,0.31,0.25,0.82-0.11,1.05l-1.61,1.07c-0.27,0.17-0.61,0.13-0.84-0.08
		c-0.57-0.54-1.34-0.86-2.32-0.86c-2.33,0-3.52,1.89-3.52,3.79s1.19,3.79,3.52,3.79c1.82,0,2.85-0.98,3.29-2.24h-2.62
		c-0.36,0-0.67-0.31-0.67-0.69v-1.22C253.8,54.88,254.11,54.57,254.47,54.57z"/>
	<path class="st0" d="M271.59,57.73c0,0.38-0.31,0.69-0.67,0.69h-6.37c0.33,1.13,1.26,1.64,2.45,1.64c0.77,0,1.36-0.29,1.72-0.59
		c0.17-0.15,0.4-0.17,0.59-0.06l1.36,0.8c0.27,0.17,0.33,0.54,0.13,0.78c-0.84,0.94-2.18,1.55-3.81,1.55
		c-3.29,0-5.45-2.07-5.45-5.07c0-2.87,2.22-5.09,4.99-5.09C269.25,52.39,271.65,54.11,271.59,57.73z M268.76,56.54
		c-0.25-1.15-1.03-1.66-2.11-1.66c-0.99,0-1.8,0.59-2.09,1.66H268.76z"/>
	<path class="st0" d="M280.94,59.3c0,2.05-1.49,3.25-4.34,3.25c-1.72,0-3.39-0.48-4.02-1.78c-0.15-0.27,0-0.61,0.31-0.71l1.89-0.59
		c0.21-0.06,0.44,0.02,0.57,0.19c0.19,0.27,0.57,0.48,1.21,0.48c0.65,0,1.17-0.19,1.17-0.71c0-0.65-1.01-0.63-2.14-0.88
		c-1.88-0.4-2.87-1.07-2.87-2.98c0-2.03,1.72-3.18,4.15-3.18c1.45,0,2.91,0.61,3.52,1.88c0.13,0.29-0.04,0.65-0.34,0.73l-1.65,0.4
		c-0.19,0.04-0.4-0.04-0.52-0.21c-0.19-0.27-0.55-0.42-0.99-0.42c-0.61,0-1.17,0.17-1.17,0.73c0,0.63,1.03,0.67,1.8,0.82
		C279.97,56.83,280.94,57.52,280.94,59.3z"/>
	<path class="st0" d="M287.16,55.18h-1.22v3.06c0,1.01,0.36,1.53,1.34,1.53c0.02,0,0.04,0,0.06,0c0.29-0.02,0.52,0.21,0.52,0.5v1.65
		c0,0.25-0.17,0.46-0.42,0.5c-0.25,0.04-0.54,0.08-0.92,0.08c-2.99,0-3.67-2.03-3.67-3.94v-3.37h-0.69c-0.38,0-0.69-0.31-0.69-0.69
		v-1.19c0-0.38,0.31-0.69,0.69-0.69h0.69v-1.36c0-0.36,0.31-0.67,0.67-0.67h1.76c0.36,0,0.67,0.31,0.67,0.67v1.36h1.22
		c0.38,0,0.69,0.31,0.69,0.69v1.19C287.85,54.88,287.54,55.18,287.16,55.18z"/>
	<path class="st0" d="M289.76,49.9c0-0.9,0.75-1.63,1.65-1.63c0.9,0,1.63,0.73,1.63,1.63c0,0.9-0.73,1.63-1.63,1.63
		C290.5,51.53,289.76,50.8,289.76,49.9z M289.83,61.63v-8.32c0-0.38,0.31-0.69,0.69-0.69h1.74c0.38,0,0.69,0.31,0.69,0.69v8.32
		c0,0.38-0.31,0.69-0.69,0.69h-1.74C290.14,62.32,289.83,62.01,289.83,61.63z"/>
	<path class="st0" d="M304.89,57.48c0,2.87-2.16,5.09-5.2,5.09c-3.02,0-5.2-2.22-5.2-5.09c0-2.89,2.18-5.09,5.2-5.09
		C302.73,52.39,304.89,54.59,304.89,57.48z M301.77,57.48c0-1.13-0.82-2.08-2.09-2.08c-1.24,0-2.07,0.96-2.07,2.08
		c0,1.13,0.82,2.07,2.07,2.07C300.95,59.55,301.77,58.61,301.77,57.48z M300.07,48.6h1.89c0.27,0,0.44,0.31,0.29,0.54l-1.24,1.78
		c-0.15,0.23-0.42,0.36-0.69,0.36h-1.49c-0.25,0-0.42-0.27-0.31-0.48l0.78-1.7C299.44,48.79,299.74,48.6,300.07,48.6z"/>
	<path class="st0" d="M315.74,56.25v5.38c0,0.38-0.31,0.69-0.67,0.69h-1.76c-0.36,0-0.67-0.31-0.67-0.69V57.1
		c0-1.13-0.69-1.66-1.55-1.66c-0.92,0-1.55,0.57-1.55,1.66v4.53c0,0.38-0.31,0.69-0.69,0.69h-1.74c-0.38,0-0.69-0.31-0.69-0.69
		v-8.32c0-0.38,0.31-0.69,0.69-0.69h1.91c0.29,0,0.52,0.23,0.52,0.52v0.36c0.54-0.63,1.38-1.11,2.64-1.11
		C314.61,52.39,315.74,54.3,315.74,56.25z"/>
	<path class="st0" d="M330.29,48.93h1.74c0.38,0,0.69,0.31,0.69,0.69v12.02c0,0.38-0.31,0.69-0.69,0.69h-1.91
		c-0.29,0-0.52-0.23-0.52-0.52v-0.44c-0.56,0.71-1.42,1.19-2.74,1.19c-3,0-4.65-2.54-4.65-5.07c0-2.54,1.65-5.09,4.65-5.09
		c1.32,0,2.18,0.48,2.74,1.19v-3.96C329.6,49.23,329.91,48.93,330.29,48.93z M329.51,57.48c0-1.3-0.9-2.08-2.07-2.08
		c-1.3,0-2.09,0.88-2.09,2.08c0,1.19,0.78,2.07,2.09,2.07C328.61,59.55,329.51,58.76,329.51,57.48z"/>
	<path class="st0" d="M344.29,57.73c0,0.38-0.31,0.69-0.67,0.69h-6.37c0.33,1.13,1.26,1.64,2.45,1.64c0.77,0,1.36-0.29,1.72-0.59
		c0.17-0.15,0.4-0.17,0.59-0.06l1.36,0.8c0.27,0.17,0.33,0.54,0.13,0.78c-0.84,0.94-2.18,1.55-3.81,1.55
		c-3.29,0-5.45-2.07-5.45-5.07c0-2.87,2.22-5.09,4.99-5.09C341.96,52.39,344.35,54.11,344.29,57.73z M341.46,56.54
		c-0.25-1.15-1.03-1.66-2.11-1.66c-0.99,0-1.8,0.59-2.09,1.66H341.46z"/>
	<path class="st0" d="M351.5,48.93h1.76c0.36,0,0.67,0.31,0.67,0.69v12.02c0,0.38-0.31,0.69-0.67,0.69h-1.76
		c-0.36,0-0.67-0.31-0.67-0.69V49.62C350.83,49.23,351.14,48.93,351.5,48.93z"/>
	<path class="st0" d="M363.38,52.62h1.91c0.38,0,0.69,0.31,0.69,0.69v8.32c0,0.38-0.31,0.69-0.69,0.69h-1.91
		c-0.29,0-0.52-0.23-0.52-0.52v-0.44c-0.57,0.71-1.44,1.19-2.74,1.19c-3.02,0-4.65-2.54-4.65-5.07c0-2.54,1.63-5.09,4.65-5.09
		c1.3,0,2.16,0.48,2.74,1.19v-0.44C362.86,52.85,363.09,52.62,363.38,52.62z M362.77,57.48c0-1.3-0.92-2.08-2.09-2.08
		c-1.28,0-2.07,0.88-2.07,2.08c0,1.19,0.78,2.07,2.07,2.07C361.85,59.55,362.77,58.76,362.77,57.48z"/>
	<path class="st0" d="M381.78,58.55c0.25-0.21,0.57-0.25,0.84-0.08l1.61,1.07c0.36,0.23,0.42,0.73,0.11,1.05
		c-1.21,1.22-2.91,1.95-4.88,1.95c-3.96,0-6.79-2.97-6.79-6.93c0-3.98,2.83-6.95,6.79-6.95c1.97,0,3.67,0.75,4.88,1.97
		c0.31,0.31,0.25,0.82-0.11,1.05l-1.61,1.07c-0.27,0.17-0.59,0.13-0.84-0.08c-0.55-0.54-1.34-0.86-2.32-0.86
		c-2.33,0-3.52,1.89-3.52,3.79s1.19,3.79,3.52,3.79C380.44,59.41,381.23,59.07,381.78,58.55z"/>
	<path class="st0" d="M393.56,52.62h1.91c0.38,0,0.69,0.31,0.69,0.69v8.32c0,0.38-0.31,0.69-0.69,0.69h-1.91
		c-0.29,0-0.52-0.23-0.52-0.52v-0.44c-0.57,0.71-1.44,1.19-2.74,1.19c-3.02,0-4.65-2.54-4.65-5.07c0-2.54,1.63-5.09,4.65-5.09
		c1.3,0,2.16,0.48,2.74,1.19v-0.44C393.05,52.85,393.28,52.62,393.56,52.62z M392.95,57.48c0-1.3-0.92-2.08-2.09-2.08
		c-1.28,0-2.07,0.88-2.07,2.08c0,1.19,0.78,2.07,2.07,2.07C392.03,59.55,392.95,58.76,392.95,57.48z"/>
	<path class="st0" d="M398.94,48.93h1.76c0.36,0,0.67,0.31,0.67,0.69v12.02c0,0.38-0.31,0.69-0.67,0.69h-1.76
		c-0.36,0-0.67-0.31-0.67-0.69V49.62C398.27,49.23,398.57,48.93,398.94,48.93z"/>
	<path class="st0" d="M403.39,49.9c0-0.9,0.75-1.63,1.65-1.63c0.9,0,1.63,0.73,1.63,1.63c0,0.9-0.73,1.63-1.63,1.63
		C404.14,51.53,403.39,50.8,403.39,49.9z M403.47,61.63v-8.32c0-0.38,0.31-0.69,0.69-0.69h1.74c0.38,0,0.69,0.31,0.69,0.69v8.32
		c0,0.38-0.31,0.69-0.69,0.69h-1.74C403.78,62.32,403.47,62.01,403.47,61.63z"/>
	<path class="st0" d="M416.17,48.93h1.74c0.38,0,0.69,0.31,0.69,0.69v12.02c0,0.38-0.31,0.69-0.69,0.69H416
		c-0.29,0-0.52-0.23-0.52-0.52v-0.44c-0.56,0.71-1.42,1.19-2.74,1.19c-3,0-4.65-2.54-4.65-5.07c0-2.54,1.65-5.09,4.65-5.09
		c1.32,0,2.18,0.48,2.74,1.19v-3.96C415.48,49.23,415.79,48.93,416.17,48.93z M415.39,57.48c0-1.3-0.9-2.08-2.07-2.08
		c-1.3,0-2.09,0.88-2.09,2.08c0,1.19,0.78,2.07,2.09,2.07C414.49,59.55,415.39,58.76,415.39,57.48z"/>
	<path class="st0" d="M428.03,52.62h1.91c0.38,0,0.69,0.31,0.69,0.69v8.32c0,0.38-0.31,0.69-0.69,0.69h-1.91
		c-0.29,0-0.52-0.23-0.52-0.52v-0.44c-0.57,0.71-1.44,1.19-2.74,1.19c-3.02,0-4.65-2.54-4.65-5.07c0-2.54,1.63-5.09,4.65-5.09
		c1.3,0,2.16,0.48,2.74,1.19v-0.44C427.52,52.85,427.75,52.62,428.03,52.62z M427.42,57.48c0-1.3-0.92-2.08-2.09-2.08
		c-1.28,0-2.07,0.88-2.07,2.08c0,1.19,0.78,2.07,2.07,2.07C426.5,59.55,427.42,58.76,427.42,57.48z"/>
	<path class="st0" d="M440.22,48.93h1.74c0.38,0,0.69,0.31,0.69,0.69v12.02c0,0.38-0.31,0.69-0.69,0.69h-1.91
		c-0.29,0-0.52-0.23-0.52-0.52v-0.44c-0.56,0.71-1.42,1.19-2.74,1.19c-3,0-4.65-2.54-4.65-5.07c0-2.54,1.65-5.09,4.65-5.09
		c1.32,0,2.18,0.48,2.74,1.19v-3.96C439.53,49.23,439.83,48.93,440.22,48.93z M439.43,57.48c0-1.3-0.9-2.08-2.07-2.08
		c-1.3,0-2.09,0.88-2.09,2.08c0,1.19,0.78,2.07,2.09,2.07C438.53,59.55,439.43,58.76,439.43,57.48z"/>
</g>
<g id="Logotipo_iniciales">
	<path class="st0" d="M111.27,29.26h4.62c0.62,0.13,0.93,0.53,0.93,1.2v27.99c0,0.46,0.26,0.78,0.78,0.98
		c0.07,0.02,0.14,0.02,0.22,0.02h4.43c0.46,0,0.78-0.26,0.98-0.78c0.02-0.07,0.02-0.14,0.02-0.22V30.46c0-0.67,0.31-1.07,0.93-1.2
		h4.57c0.47,0,0.8,0.29,0.98,0.86v28.6c0,1.62-0.64,3.18-1.91,4.7c-0.73,0.77-1.37,1.29-1.91,1.57c-1.11,0.65-2.52,0.98-4.23,0.98
		h-3.28c-1.94,0-3.51-0.42-4.7-1.27c-1.44-0.9-2.46-2.28-3.08-4.16c-0.21-0.64-0.32-1.53-0.32-2.67V30.56
		c0-0.62,0.22-1.04,0.66-1.25C111.14,29.28,111.24,29.26,111.27,29.26z"/>
	<path class="st0" d="M140.48,29.26c0.47,0,0.86,0.46,1.15,1.37c0.06,0.07,2.8,6.47,8.22,19.21h0.02V30.56
		c0-0.62,0.22-1.04,0.66-1.25c0.16-0.03,0.26-0.05,0.29-0.05h4.6c0.42,0,0.73,0.29,0.93,0.86v34.92c-0.13,0.62-0.53,0.93-1.2,0.93
		h-4.09c-0.65,0-1.08-0.39-1.3-1.17c-0.1-0.2-2.92-6.65-8.46-19.36h-0.02v19.28c0,0.59-0.23,0.97-0.68,1.15
		c-0.13,0.07-0.32,0.1-0.56,0.1h-3.94c-0.88,0-1.32-0.44-1.32-1.32V30.39c0-0.57,0.29-0.95,0.86-1.13H140.48z"/>
	<path class="st0" d="M168.78,29.26h4.97c1.81,0,3.53,0.77,5.16,2.32c1.37,1.6,2.05,3.23,2.05,4.89v2.67
		c-0.13,0.6-0.53,0.91-1.2,0.91h-4.04c-0.57,0-0.95-0.23-1.15-0.69c-0.07-0.11-0.1-0.29-0.1-0.54v-2.08c0-0.46-0.25-0.78-0.76-0.98
		c-0.08-0.02-0.16-0.02-0.24-0.02h-4.43c-0.46,0-0.78,0.25-0.98,0.76c-0.02,0.08-0.02,0.16-0.02,0.24v6.58
		c0,0.46,0.26,0.78,0.78,0.98c0.07,0.02,0.14,0.02,0.22,0.02h3.86c2.02,0,3.65,0.47,4.89,1.42c0.68,0.47,1.35,1.16,1.98,2.06
		c0.78,1.34,1.17,2.6,1.17,3.79v7.12c0,1.62-0.64,3.18-1.91,4.7c-0.73,0.77-1.37,1.29-1.91,1.57c-1.11,0.65-2.52,0.98-4.23,0.98
		h-3.28c-1.94,0-3.51-0.42-4.7-1.27c-1.44-0.9-2.46-2.28-3.08-4.16c-0.21-0.64-0.32-1.53-0.32-2.67v-1.39
		c0-0.88,0.44-1.32,1.32-1.32h3.94c0.59,0,0.97,0.23,1.15,0.68c0.07,0.11,0.1,0.29,0.1,0.54v2.08c0,0.46,0.26,0.78,0.78,0.98
		c0.07,0.02,0.14,0.02,0.22,0.02h4.43c0.46,0,0.78-0.26,0.98-0.78c0.02-0.07,0.02-0.14,0.02-0.22v-6.58c0-0.47-0.25-0.8-0.76-0.98
		c-0.08-0.03-0.16-0.05-0.24-0.05h-3.84c-1.94,0-3.51-0.42-4.7-1.25c-1.44-0.91-2.46-2.31-3.08-4.18c-0.21-0.62-0.32-1.5-0.32-2.64
		v-5.46c0-2.02,0.47-3.65,1.42-4.89c0.46-0.68,1.13-1.35,2.03-1.98C166.32,29.65,167.59,29.26,168.78,29.26z"/>
	<path class="st0" d="M191.97,29.26c0.46,0,0.85,0.48,1.17,1.44c0.05,0.07,2.34,5.3,6.87,15.71h0.05
		c4.7-10.75,7.13-16.31,7.31-16.69c0.24-0.31,0.5-0.46,0.76-0.46h4.94c0.47,0,0.8,0.29,0.98,0.86v34.92
		c-0.13,0.62-0.53,0.93-1.2,0.93h-3.96c-0.88,0-1.32-0.44-1.32-1.32V45.44h-0.02c-2.72,6.28-4.15,9.54-4.28,9.79
		c-0.26,0.28-0.54,0.42-0.83,0.42h-4.72c-0.57,0-0.96-0.35-1.17-1.05c-2.64-5.97-3.98-9.02-4.01-9.15h-0.02v19.28
		c0,0.59-0.23,0.97-0.68,1.15c-0.11,0.07-0.3,0.1-0.56,0.1h-3.94c-0.88,0-1.32-0.44-1.32-1.32V30.39c0-0.57,0.29-0.95,0.86-1.13
		H191.97z"/>
</g>
<g id="Separador_00000021831872939351264230000000137491648151756434_">
	<rect x="92.35" y="20.95" class="st0" width="0.78" height="54.11"/>
</g>
<g id="Escudo_00000145029835758709467870000000920010310044604830_">
	<path id="Cuadro_1_00000075154110340595645610000000248498242129939096_" class="st1" d="M74.9,3.62v70.33
		c-0.28,7.68-6.28,13.84-12.24,14.43h-43.8c-6.87-0.1-15.19-5.99-15.6-14.68V3.62H74.9z"/>
	<path id="Marco_1_00000133523811014020742650000009406152702658944176_" class="st0" d="M62.66,89h-43.8
		c-7.34-0.1-15.8-6.4-16.21-15.27l0-70.11C2.64,3.28,2.91,3,3.25,3H74.9c0.34,0,0.62,0.28,0.62,0.62v70.33
		c-0.3,8.29-6.86,14.46-12.8,15.04C62.7,89,62.68,89,62.66,89z M3.87,4.24V73.7c0.38,8.16,8.2,13.97,14.99,14.06h43.77
		c5.41-0.55,11.38-6.23,11.65-13.83l0-69.69H3.87z"/>
	<g id="Marco_2_00000104703798648497176810000017277771549601838983_">
		<path class="st0" d="M59.53,75.72l-40.37-0.01c-2.37,0-2.96-1.23-3.23-2.56c-0.01-0.03-0.01-0.06-0.01-0.08V21.19
			c0-0.23,0.18-0.41,0.41-0.41h45.5c0.23,0,0.41,0.18,0.41,0.41v51.4C62.19,73.65,61.58,75.64,59.53,75.72z M16.74,73.02
			c0.22,1.06,0.56,1.87,2.42,1.87l40.36,0.01c1.78-0.07,1.9-2.24,1.9-2.33l0-50.97H16.74V73.02z"/>
	</g>
	<path id="siglas_unsm_00000178175621660231934090000009533324212410242998_" class="st0" d="M14.17,18.67
		c-0.27,0-0.56-0.01-0.87-0.02c-2.08-0.11-3.83-1.56-3.83-3.16l0.03-9.07c0-0.16,0.13-0.28,0.28-0.28l4.25,0
		c0.08,0,0.15,0.03,0.2,0.08c0.05,0.05,0.08,0.13,0.08,0.2v8.49c0.04,0.48,0.89,0.74,1.69,0.71c0.69-0.03,1.38-0.28,1.38-0.71V6.41
		c0-0.16,0.13-0.28,0.28-0.28l4.3,0c0.16,0,0.28,0.13,0.28,0.28v0.24c0.66-0.22,2.09-0.61,3.83-0.51c2.45,0.15,4.1,1.42,4.1,3.17
		c0,1.62,0.02,5.71,0.02,5.71c-0.03,0.5,0.08,0.51,0.24,0.54c2.5-0.02,5.08-0.01,7.64-0.01c1.27,0,2.53,0,3.78,0
		c0.12,0,0.35-0.29,0.41-0.73c0.02-0.19,0.06-0.8-0.45-0.96c-0.67,0-1.47,0.01-2.35,0.01c-2.14,0.02-4.8,0.04-6.72-0.01
		c-1.62-0.04-2.51-1.39-2.49-3.82c0.03-3.24,1.38-3.92,2.51-3.92h15.04c0.62,0,1.37,0.38,1.96,1c0.23,0.24,0.42,0.5,0.56,0.76
		c0.69-1.26,2.51-1.74,4.21-1.75c2.35-0.02,3.88,0.46,4.49,1.41c0.87-1.33,3.21-1.45,5.01-1.41c3.05,0.07,4.59,1.33,4.59,3.73
		c0,2.82,0,8.49,0,8.49c0,0.16-0.13,0.28-0.28,0.28h-4.29c-0.08,0-0.15-0.03-0.2-0.08c-0.05-0.05-0.08-0.13-0.08-0.2
		c0,0,0-5.45,0-8.49c0-0.04-0.03-0.1-0.09-0.15c-0.29-0.29-0.99-0.48-1.44-0.49c-0.6,0.01-1.55,0.3-1.55,0.63v8.51
		c0,0.16-0.13,0.28-0.28,0.28h-4.28c-0.16,0-0.28-0.13-0.28-0.28V9.87c0-0.18-0.14-0.34-0.4-0.46c-0.29-0.13-0.7-0.21-1.13-0.21
		c-0.76,0-1.54,0.25-1.54,0.67v8.49c0,0.16-0.13,0.28-0.28,0.28h-4.29c-0.08,0-0.15-0.03-0.2-0.08c-0.05-0.05-0.08-0.13-0.08-0.2
		c0,0,0-5.62,0-8.17c0-0.58-0.35-0.92-0.99-0.97l-10.66,0c-0.66,0.15-0.63,0.83-0.62,0.97c0.03,0.35,0.23,0.71,0.5,0.71
		c0.58,0,1.67,0,2.93-0.01c1.78-0.01,3.91-0.01,5.51-0.01c1.94,0,3.02,1.39,3.04,3.93c0.01,1.36-0.39,2.59-1.07,3.27
		c-0.37,0.37-0.8,0.56-1.26,0.56c-4.7,0-17.54,0-17.54,0c-0.65,0.03-1.19-0.36-1.53-0.69c-0.52-0.5-0.9-1.19-0.9-1.64
		c0-1.94,0-3.21,0.03-6.4c0-0.53-0.32-0.83-0.6-0.99c-0.57-0.33-1.41-0.35-1.95-0.03c-0.26,0.15-0.56,0.44-0.56,0.97v8.49
		c0,0.16-0.13,0.28-0.28,0.28h-4.3c-0.16,0-0.28-0.13-0.28-0.28v-0.17C16.87,18.39,15.84,18.67,14.17,18.67z M10.07,6.69l-0.03,8.79
		c0,1.29,1.53,2.5,3.29,2.6c2.98,0.15,4.18-0.56,4.19-0.57c0.09-0.05,0.2-0.06,0.29-0.01c0.09,0.05,0.15,0.14,0.15,0.25v0.33h3.73
		V9.87c0-0.63,0.3-1.15,0.85-1.46c0.72-0.41,1.78-0.4,2.52,0.03c0.57,0.33,0.88,0.86,0.88,1.49c-0.03,3.18-0.03,4.45-0.03,6.39
		c0,0.23,0.25,0.78,0.72,1.24c0.37,0.35,0.77,0.54,1.13,0.53c0.01,0,12.85,0,17.55,0c0.3,0,0.59-0.13,0.85-0.4
		c0.57-0.57,0.92-1.67,0.91-2.87c-0.02-2.23-0.85-3.36-2.47-3.36c-1.6,0-3.73,0.01-5.51,0.01c-1.27,0-2.35,0.01-2.94,0.01
		c-0.55,0-1-0.51-1.07-1.22c-0.06-0.67,0.25-1.42,1.1-1.59c0.02,0,0.04-0.01,0.05-0.01h10.71c0.96,0.07,1.54,0.65,1.54,1.54
		c0,2.21,0,6.71,0,7.88h3.72V9.87c0-1.28,2.37-1.49,3.47-0.97c0.47,0.22,0.73,0.57,0.73,0.97v8.21h3.71V9.86
		c0-0.88,1.45-1.19,2.11-1.2c0.57-0.01,1.43,0.24,1.84,0.65c0.22,0.21,0.26,0.42,0.26,0.56c0,2.63,0,7.05,0,8.21h3.73
		c0-1.18,0-5.77,0-8.21c0-2.09-1.28-3.1-4.04-3.16c-1.85-0.04-4.36,0.08-4.72,1.64c-0.03,0.13-0.15,0.24-0.28,0.22
		c-0.13,0-0.25-0.1-0.27-0.23c-0.28-1.37-2.46-1.65-4.21-1.63c-1.86,0.01-3.86,0.61-3.94,2.27c0,0,0,0,0,0
		c-0.01,0.16-0.14,0.28-0.3,0.27c-0.16-0.01-0.28-0.14-0.27-0.3c0,0,0,0,0,0l0,0c0.02-0.43-0.24-0.96-0.68-1.42
		c-0.48-0.5-1.09-0.82-1.55-0.82H32.78c-1.27,0-1.92,1.13-1.94,3.35c-0.01,1.46,0.32,3.2,1.94,3.24c1.91,0.05,4.57,0.03,6.7,0.01
		c0.89-0.01,1.71-0.01,2.39-0.01h0c0.02,0,0.05,0,0.07,0.01c0.65,0.17,1,0.8,0.89,1.59c-0.08,0.61-0.44,1.22-0.97,1.22
		c-1.25,0-2.51,0-3.78,0c-2.55,0-5.14-0.01-7.67,0c-0.58-0.08-0.81-0.43-0.77-1.12l0,0c0,0-0.02-4.08-0.02-5.7
		c0-1.45-1.4-2.48-3.57-2.61c-2.23-0.13-3.95,0.61-3.97,0.61c-0.09,0.04-0.19,0.03-0.27-0.02c-0.08-0.05-0.13-0.14-0.13-0.24V6.69
		l-3.73,0v8.2c0,0.72-0.77,1.23-1.93,1.28c-1.05,0.04-2.21-0.33-2.28-1.25l0-8.23L10.07,6.69z"/>
	<g id="Laurel_y_cruz_00000181062956038427789730000001043332072890480001_">
		<g>
			<path class="st0" d="M59.06,55.42c0,0-0.16,0.5-0.48,1.35c-0.32,0.85-0.8,2.06-1.46,3.47c-0.67,1.41-1.5,3.04-2.66,4.63
				c-0.58,0.8-1.24,1.58-2.04,2.26c-0.4,0.33-0.83,0.65-1.32,0.89c-0.25,0.12-0.47,0.22-0.71,0.33c-0.24,0.1-0.49,0.21-0.73,0.3
				c-1.96,0.76-4.02,1.22-5.93,1.61c-0.95,0.2-1.88,0.36-2.73,0.56c-0.86,0.19-1.66,0.41-2.37,0.68c-0.71,0.27-1.32,0.59-1.82,0.94
				c-0.5,0.36-0.87,0.75-1.15,1.09c-0.14,0.18-0.26,0.33-0.35,0.48c-0.09,0.15-0.17,0.27-0.23,0.38c-0.12,0.21-0.18,0.33-0.18,0.33
				l0,0c-0.01,0.02-0.03,0.02-0.05,0.01c-0.02-0.01-0.02-0.03-0.02-0.04c0,0,0.04-0.12,0.13-0.36c0.04-0.12,0.1-0.25,0.18-0.42
				c0.07-0.17,0.18-0.34,0.3-0.54c0.24-0.39,0.6-0.84,1.1-1.27c0.5-0.43,1.13-0.83,1.86-1.15c0.73-0.33,1.55-0.59,2.43-0.82
				c0.88-0.21,1.8-0.42,2.76-0.58c1.91-0.35,3.95-0.7,5.88-1.4c0.24-0.08,0.47-0.18,0.71-0.27c0.23-0.1,0.49-0.2,0.71-0.3
				c0.45-0.21,0.86-0.5,1.25-0.8c0.77-0.63,1.43-1.38,2.02-2.14c1.16-1.54,2.05-3.13,2.76-4.51c0.7-1.39,1.22-2.58,1.57-3.41
				c0.35-0.84,0.52-1.33,0.52-1.33c0.01-0.02,0.03-0.03,0.05-0.02C59.05,55.38,59.06,55.4,59.06,55.42"/>
			<g>
				<g>
					<path class="st0" d="M47.67,73.85c-0.09,0-0.18-0.03-0.25-0.1l-3.73-3.74l-0.35-3.54c-0.02-0.19,0.12-0.36,0.31-0.38
						c0.19-0.02,0.36,0.12,0.38,0.31l0.33,3.29l3.55,3.56c0.14,0.14,0.14,0.36,0,0.5C47.85,73.82,47.76,73.85,47.67,73.85z"/>
				</g>
				<g>
					<path class="st0" d="M49.76,73.35c-0.08,0-0.17-0.03-0.23-0.09l-4.14-3.72l-0.47-3.33c-0.03-0.19,0.11-0.37,0.3-0.4
						c0.2-0.03,0.37,0.11,0.4,0.3l0.44,3.08L50,72.74c0.14,0.13,0.16,0.35,0.03,0.49C49.95,73.31,49.86,73.35,49.76,73.35z"/>
				</g>
				<g>
					<path class="st0" d="M51.7,72.81c-0.08,0-0.16-0.03-0.22-0.08l-4.22-3.52l-0.58-3.34c-0.03-0.19,0.1-0.37,0.29-0.41
						c0.2-0.03,0.37,0.1,0.4,0.29l0.53,3.09l4.02,3.36c0.15,0.12,0.17,0.34,0.04,0.49C51.9,72.77,51.8,72.81,51.7,72.81z"/>
				</g>
				<g>
					<path class="st0" d="M53.49,71.89c-0.07,0-0.14-0.02-0.2-0.06l-4.39-3.14l-0.6-3.44c-0.03-0.19,0.09-0.37,0.28-0.41
						c0.19-0.03,0.37,0.09,0.4,0.28l0.55,3.15l4.16,2.97c0.16,0.11,0.19,0.33,0.08,0.49C53.71,71.84,53.6,71.89,53.49,71.89z"/>
				</g>
				<g>
					<path class="st0" d="M55.31,70.76c-0.06,0-0.13-0.02-0.19-0.05l-4.38-2.78l-0.79-3.32c-0.04-0.19,0.07-0.38,0.26-0.42
						c0.19-0.04,0.38,0.07,0.42,0.26l0.73,3.05l4.14,2.63c0.16,0.1,0.21,0.32,0.11,0.48C55.54,70.7,55.43,70.76,55.31,70.76z"/>
				</g>
				<g>
					<path class="st0" d="M56.81,68.91c-0.05,0-0.1-0.01-0.14-0.03l-4.31-1.96l-0.99-3.29c-0.06-0.19,0.05-0.38,0.23-0.44
						c0.19-0.05,0.38,0.05,0.44,0.23l0.9,2.99l4.02,1.82c0.18,0.08,0.25,0.29,0.17,0.46C57.07,68.83,56.94,68.91,56.81,68.91z"/>
				</g>
				<g>
					<path class="st0" d="M57.69,66.95c-0.03,0-0.07-0.01-0.11-0.02l-3.92-1.24l-0.96-3.23c-0.06-0.19,0.05-0.38,0.24-0.44
						c0.19-0.06,0.38,0.05,0.44,0.24l0.86,2.88l3.56,1.13c0.18,0.06,0.29,0.26,0.23,0.44C57.98,66.86,57.84,66.95,57.69,66.95z"/>
				</g>
				<g>
					<path class="st0" d="M58.56,64.86c-0.02,0-0.03,0-0.05,0l-3.77-0.5l-0.92-3.11c-0.05-0.19,0.05-0.38,0.24-0.44
						c0.19-0.05,0.38,0.05,0.44,0.24l0.79,2.68l3.32,0.44c0.19,0.03,0.33,0.2,0.3,0.39C58.88,64.73,58.73,64.86,58.56,64.86z"/>
				</g>
				<g>
					<path class="st0" d="M59.02,62.8C59.02,62.8,59.02,62.8,59.02,62.8l-3.44-0.09l-0.72-2.78c-0.05-0.19,0.06-0.38,0.25-0.43
						c0.19-0.05,0.38,0.06,0.43,0.25l0.59,2.27l2.9,0.08c0.19,0.01,0.35,0.17,0.34,0.36C59.37,62.65,59.21,62.8,59.02,62.8z"/>
				</g>
				<g>
					<path class="st0" d="M56.53,60.97l-0.69-2.59c-0.04-0.14,0.05-0.28,0.19-0.32c0.14-0.04,0.28,0.05,0.32,0.19l0.57,2.16
						l2.57-0.23c0.14-0.02,0.27,0.09,0.28,0.24c0.01,0.14-0.09,0.27-0.24,0.28L56.53,60.97z"/>
				</g>
				<g>
					<path class="st0" d="M57.37,59.37l-0.81-2.48c-0.04-0.14,0.03-0.29,0.17-0.33c0.14-0.04,0.29,0.03,0.33,0.17l0.66,2.04
						l2.23-0.44c0.14-0.03,0.28,0.06,0.31,0.21c0.03,0.14-0.06,0.28-0.21,0.31L57.37,59.37z"/>
				</g>
				<g>
					<path class="st0" d="M58,57.9l-0.4-2.18c-0.03-0.14,0.07-0.28,0.21-0.31c0.14-0.02,0.28,0.07,0.31,0.21l0.29,1.57l1.74-0.63
						c0.14-0.05,0.29,0.02,0.34,0.16c0.05,0.14-0.02,0.29-0.16,0.34L58,57.9z"/>
				</g>
			</g>
		</g>
		<g>
			<path class="st0" d="M19.86,58.01c0,0,0.15,0.45,0.48,1.22c0.33,0.76,0.83,1.84,1.54,3.07c0.36,0.61,0.77,1.26,1.26,1.91
				c0.49,0.65,1.03,1.31,1.68,1.9c0.64,0.6,1.38,1.14,2.19,1.51c0.22,0.09,0.43,0.18,0.65,0.28c0.22,0.08,0.43,0.17,0.65,0.24
				c0.44,0.16,0.89,0.31,1.34,0.43c1.81,0.52,3.68,0.81,5.45,1.15c0.88,0.18,1.73,0.36,2.53,0.6c0.8,0.23,1.55,0.51,2.2,0.84
				c0.66,0.33,1.22,0.73,1.65,1.14c0.22,0.2,0.41,0.42,0.57,0.61c0.15,0.21,0.29,0.4,0.39,0.59c0.11,0.18,0.2,0.35,0.27,0.5
				c0.08,0.15,0.13,0.28,0.16,0.39C42.96,74.6,43,74.72,43,74.72c0.01,0.02,0,0.04-0.02,0.05c-0.02,0-0.03,0-0.04-0.02l0,0
				c0,0-0.06-0.1-0.16-0.3c-0.05-0.1-0.12-0.22-0.21-0.35c-0.08-0.14-0.18-0.29-0.31-0.45c-0.25-0.32-0.58-0.69-1.03-1.04
				c-0.44-0.35-0.99-0.66-1.63-0.94c-0.64-0.27-1.36-0.5-2.14-0.69c-0.78-0.19-1.62-0.37-2.49-0.53c-1.74-0.35-3.63-0.73-5.47-1.32
				c-0.46-0.15-0.91-0.31-1.36-0.48c-0.22-0.09-0.45-0.18-0.67-0.27c-0.21-0.1-0.43-0.2-0.64-0.3c-0.88-0.44-1.63-1.02-2.28-1.66
				c-0.65-0.64-1.19-1.33-1.66-2.01c-0.47-0.68-0.87-1.35-1.21-1.98c-0.68-1.27-1.14-2.37-1.44-3.15c-0.3-0.78-0.44-1.24-0.44-1.24
				c-0.01-0.02,0-0.04,0.02-0.04C19.84,57.98,19.85,57.99,19.86,58.01"/>
			<path class="st0" d="M30,74.66c3.45-1.44,2.95-5.11,2.95-5.11C29.11,71.08,30,74.66,30,74.66"/>
			<path class="st0" d="M24.29,73.04c4.45,0.11,5.51-4.05,5.51-4.05C24.88,68.78,24.29,73.04,24.29,73.04"/>
			<path class="st0" d="M30.87,63.22c-1.5,3.5,1.64,6.31,1.64,6.31C34.24,65.69,30.87,63.22,30.87,63.22"/>
			<path class="st0" d="M27.7,68.31c2.36-3.25-0.22-6.78-0.22-6.78C24.82,65.07,27.7,68.31,27.7,68.31"/>
			<path class="st0" d="M20.96,68.92c3.19,1.58,5.59-1.14,5.59-1.14C23.05,65.97,20.96,68.92,20.96,68.92"/>
			<path class="st0" d="M24.99,60.14c-2.62,2.41-0.95,5.63-0.95,5.63C26.99,63.16,24.99,60.14,24.99,60.14"/>
			<path class="st0" d="M23.76,65.3c-2.43-2.11-4.94-0.27-4.94-0.27C21.47,67.41,23.76,65.3,23.76,65.3"/>
			<path class="st0" d="M21.82,62.43c-1.64-1.68-3.58-0.49-3.58-0.49C20.03,63.82,21.82,62.43,21.82,62.43"/>
			<path class="st0" d="M21.86,62.55c2.13-1.89,0.84-4.49,0.84-4.49C20.3,60.11,21.86,62.55,21.86,62.55"/>
			<path class="st0" d="M20.68,59.97c1-2.24-0.94-3.83-0.94-3.83C18.59,58.6,20.68,59.97,20.68,59.97"/>
			<path class="st0" d="M20.55,60.05c-0.35-2.23-2.63-2.49-2.63-2.49C18.25,60.04,20.55,60.05,20.55,60.05"/>
		</g>
		<polygon class="st2" points="42.17,70.17 39.82,70.17 39.82,67.82 38.25,67.82 38.25,70.17 35.9,70.17 35.9,71.73 38.25,71.73 
			38.25,74.09 39.82,74.09 39.82,71.73 42.17,71.73 		"/>
	</g>
	<g id="Tarapoto_00000004542723699872374390000011187398613206318730_">
		<path class="st0" d="M26.52,26.25l1.97-1.01l0.26,0.51l-0.84,0.43l1.2,2.33l-0.58,0.3l-1.2-2.33l-0.84,0.43l-0.1-0.2
			C26.3,26.54,26.36,26.33,26.52,26.25"/>
		<path class="st0" d="M30.31,24.53l2.2,2.58l-0.65,0.24l-0.43-0.53l-1.15,0.44l0.03,0.69l-0.65,0.25l-0.06-3.17
			c-0.01-0.15,0.07-0.25,0.22-0.31L30.31,24.53z M30.26,26.68l0.82-0.31l-0.89-1.11L30.26,26.68z"/>
		<path class="st0" d="M34.56,25.07c0.14,0.02,0.26,0.07,0.35,0.15c0.08,0.09,0.14,0.24,0.2,0.44l0.16,0.6
			c0.03,0.1,0.08,0.16,0.15,0.18l-0.7,0.16c-0.05-0.05-0.07-0.11-0.09-0.18c-0.02-0.04-0.07-0.22-0.14-0.52
			c-0.11-0.37-0.2-0.47-0.58-0.39l-0.68,0.15l0.27,1.21l-0.64,0.14l-0.62-2.78c-0.04-0.18,0.07-0.37,0.24-0.41l1.18-0.27
			c0.65-0.14,1.06,0.02,1.2,0.67C34.95,24.63,34.84,24.92,34.56,25.07 M33.7,24.13l-0.79,0.18l0.18,0.82l0.75-0.17
			c0.3-0.07,0.45-0.22,0.38-0.52C34.16,24.15,33.98,24.06,33.7,24.13"/>
		<path class="st0" d="M37.4,23.06l1.38,3.1l-0.69,0.05l-0.26-0.63l-1.23,0.09l-0.16,0.67l-0.7,0.05l0.84-3.05
			c0.04-0.14,0.13-0.22,0.29-0.23L37.4,23.06z M36.74,25.11l0.87-0.06l-0.54-1.32L36.74,25.11z"/>
		<path class="st0" d="M40.66,25.15l-0.81-0.06l-0.08,1.13l-0.65-0.05l0.2-2.84c0.01-0.18,0.17-0.33,0.35-0.32l1.08,0.08
			c0.67,0.05,1,0.43,0.95,1.1C41.67,24.82,41.3,25.2,40.66,25.15 M40.54,24.56c0.33,0.03,0.5-0.11,0.52-0.42
			c0.02-0.31-0.12-0.48-0.43-0.5l-0.66-0.05l-0.07,0.92L40.54,24.56z"/>
		<path class="st0" d="M42.19,24.82c0.21-0.95,0.91-1.49,1.84-1.29c0.93,0.2,1.35,0.99,1.15,1.94c-0.21,0.96-0.89,1.49-1.84,1.28
			C42.39,26.54,41.99,25.77,42.19,24.82 M42.83,24.95c-0.13,0.61,0.04,1.13,0.62,1.25c0.58,0.13,0.95-0.25,1.09-0.88
			c0.13-0.61-0.05-1.11-0.63-1.24C43.33,23.96,42.96,24.35,42.83,24.95"/>
		<path class="st0" d="M46.44,24.21l2.08,0.75l-0.19,0.53l-0.89-0.32l-0.88,2.47l-0.61-0.22l0.88-2.47l-0.89-0.32l0.07-0.21
			C46.07,24.25,46.26,24.15,46.44,24.21"/>
		<path class="st0" d="M48.24,26.55c0.43-0.88,1.25-1.22,2.1-0.8c0.85,0.42,1.07,1.29,0.64,2.16c-0.44,0.88-1.23,1.23-2.1,0.8
			C48.01,28.27,47.81,27.43,48.24,26.55 M48.83,26.84c-0.28,0.56-0.24,1.1,0.3,1.37c0.53,0.26,0.99-0.02,1.27-0.59
			c0.28-0.57,0.23-1.09-0.31-1.36C49.55,26,49.1,26.29,48.83,26.84"/>
	</g>
	<g id="Letras_UNSM_00000084521261100068872120000007769618799220370089_">
		<path class="st3" d="M13.53,21.19H7.85c-1.09,0-1.97,0.89-1.97,1.97v0.28c0,1.09,0.89,1.97,1.97,1.97h5.68v-1.43H8.34
			c-0.38,0-0.69-0.31-0.69-0.69c0-0.38,0.31-0.69,0.69-0.69h5.19V21.19z"/>
		<polygon class="st3" points="5.93,26.26 13.53,26.26 13.53,27.18 13.53,27.54 13.53,28.46 7.76,30.11 13.53,30.11 13.53,31.4 
			5.93,31.4 5.93,30.64 5.93,30.11 5.93,29.35 12.26,27.54 5.93,27.54 		"/>
		<rect x="5.93" y="32.39" class="st3" width="7.6" height="1.29"/>
		<polygon class="st3" points="13.53,34.31 5.93,35.58 5.93,36.4 5.93,36.86 5.93,37.68 13.53,38.96 13.53,37.67 7.32,36.63 
			13.53,35.59 		"/>
		<polygon class="st3" points="13.53,39.59 5.93,39.59 5.93,39.85 5.93,40.87 5.93,43.35 7.52,43.35 7.52,40.87 9.05,40.87 
			9.05,43.24 10.64,43.24 10.64,40.87 11.94,40.87 11.94,43.35 13.53,43.35 13.53,40.87 13.53,39.85 		"/>
		<path class="st3" d="M12.01,45.36v1c0,0.37-0.3,0.67-0.67,0.67h-1.04c-0.37,0-0.67-0.3-0.67-0.67v-1H12.01z M13.53,44.08h-7.6
			v1.29h2v1.23c0,0-0.03,0.62-2,0.49v1.31c0,0,2.62,0.17,2.92-0.88c0,0,0.39,0.81,2.09,0.78c1.69-0.03,2.41-0.07,2.59-0.98v-1.96
			v-0.35V44.08z"/>
		<rect x="5.93" y="54.19" class="st3" width="7.6" height="1.29"/>
		<path class="st3" d="M7.7,48.91h0.87v1.45H7.84c0,0-0.54,0.19-0.56,0.75c-0.02,0.56,0.32,0.91,0.82,0.91
			c0.5,0,0.95-0.09,0.99-1.25c0.04-1.16,0.26-1.62,1.62-1.86h1.05c0.97,0,1.77,0.8,1.77,1.77v0.8c0,0.97-0.8,1.77-1.77,1.77h-0.75
			v-1.38h0.73c0,0,0.41-0.15,0.43-0.71c0.02-0.56-0.26-0.93-0.69-0.95c-0.43-0.02-0.95,0.09-0.99,1.25
			c-0.03,1.05-0.22,1.53-1.27,1.79H7.7c-0.97,0-1.77-0.8-1.77-1.77v-0.8C5.93,49.71,6.73,48.91,7.7,48.91"/>
		<path class="st3" d="M7.49,57.74h4.49v1.21c0,0.43-0.35,0.79-0.79,0.79H8.27c-0.43,0-0.79-0.35-0.79-0.79V57.74z M13.53,56.42
			v2.86c0,0.87-0.71,1.58-1.59,1.58H7.52c-0.87,0-1.58-0.71-1.58-1.58v-2.86H13.53z"/>
		<path class="st3" d="M10.39,63.17h1.4c0.26,0,0.48,0.22,0.48,0.49v0.72c0,0.27-0.21,0.49-0.48,0.49h-1.4V63.17z M5.93,61.61v1.56
			h3.02v1.69H5.93v1.57h6.24c0.75,0,1.36-0.63,1.36-1.39v-2.05c0-0.76-0.61-1.39-1.36-1.39H5.93z"/>
		<path class="st3" d="M7.49,68.66h4.49v1.21c0,0.43-0.35,0.79-0.79,0.79H8.27c-0.43,0-0.79-0.35-0.79-0.79V68.66z M13.53,67.34
			v2.86c0,0.87-0.71,1.59-1.59,1.59H7.52c-0.87,0-1.58-0.71-1.58-1.59v-2.86H13.53z"/>
		<polygon class="st3" points="64.52,21.16 72.12,21.16 72.12,22.02 72.12,22.36 72.12,23.22 66.35,24.76 72.12,24.76 72.12,25.96 
			64.52,25.96 64.52,25.25 64.52,24.76 64.52,24.05 70.85,22.36 64.52,22.36 		"/>
		<rect x="64.52" y="27.23" class="st3" width="7.6" height="1.31"/>
		<polygon class="st3" points="66.37,30.85 72.12,30.85 72.12,32.16 66.37,32.16 66.37,33.4 64.52,33.4 64.52,32.16 64.52,30.85 
			64.52,29.61 66.37,29.61 		"/>
		<path class="st3" d="M66.04,37.17v-1c0-0.37,0.3-0.67,0.67-0.67h1.04c0.37,0,0.67,0.3,0.67,0.67v1H66.04z M64.52,38.46h7.6v-1.28
			h-2v-1.23c0,0,0.03-0.62,2-0.49v-1.3c0,0-2.62-0.18-2.92,0.88c0,0-0.39-0.81-2.08-0.78c-1.7,0.03-2.41,0.08-2.59,0.98v1.96v0.35
			V38.46z"/>
		<path class="st3" d="M67.67,40.87h-1.4c-0.26,0-0.48,0.22-0.48,0.49v0.72c0,0.27,0.21,0.49,0.48,0.49h1.4V40.87z M72.12,39.3v1.57
			H69.1v1.69h3.02v1.57h-6.24c-0.75,0-1.36-0.62-1.36-1.39v-2.05c0-0.76,0.61-1.39,1.36-1.39H72.12z"/>
		<polygon class="st3" points="72.12,45.23 64.52,45.23 64.52,45.79 64.52,46.51 64.52,47.08 69.45,48.26 64.52,49.44 64.52,50.13 
			64.52,50.73 64.52,51.41 72.12,51.41 72.12,50.13 67.01,50.13 72.12,48.91 72.12,48.9 72.12,47.62 72.12,47.61 67.53,46.51 
			72.12,46.51 		"/>
		<polygon class="st3" points="64.52,54.89 72.12,54.89 72.12,55.75 72.12,56.09 72.12,56.95 66.35,58.49 72.12,58.49 72.12,59.69 
			64.52,59.69 64.52,58.98 64.52,58.49 64.52,57.77 70.85,56.09 64.52,56.09 		"/>
		<path class="st3" d="M67.67,62.42h-1.4c-0.26,0-0.48,0.22-0.48,0.49v0.72c0,0.27,0.21,0.49,0.48,0.49h1.4V62.42z M72.12,60.85
			v1.57H69.1v1.69h3.02v1.57h-6.24c-0.75,0-1.36-0.63-1.36-1.39v-2.05c0-0.76,0.61-1.39,1.36-1.39H72.12z"/>
		<path class="st3" d="M66.29,66.76h0.87v1.45h-0.73c0,0-0.54,0.19-0.56,0.74c-0.02,0.56,0.32,0.91,0.82,0.91
			c0.5,0,0.95-0.09,0.99-1.25c0.04-1.15,0.26-1.62,1.62-1.86h1.05c0.97,0,1.77,0.8,1.77,1.77v0.8c0,0.97-0.8,1.77-1.77,1.77H69.6
			v-1.38h0.73c0,0,0.41-0.15,0.42-0.71c0.02-0.56-0.26-0.93-0.69-0.95c-0.43-0.02-0.95,0.09-0.99,1.25
			c-0.03,1.05-0.22,1.53-1.27,1.79h-1.52c-0.97,0-1.77-0.8-1.77-1.77v-0.8C64.52,67.55,65.32,66.76,66.29,66.76"/>
		<path class="st3" d="M45.49,81.33v-1.45c0-0.27,0.23-0.49,0.5-0.49h0.74c0.28,0,0.5,0.22,0.5,0.49v1.45H45.49z M43.87,85.95h1.62
			v-3.13h1.75v3.13h1.62v-6.47c0-0.78-0.64-1.41-1.43-1.41H45.3c-0.79,0-1.43,0.63-1.43,1.41V85.95z"/>
		<polygon class="st3" points="49.71,78.13 51.18,78.13 51.18,84.21 53.57,84.21 53.57,85.95 51.18,85.95 50.88,85.95 49.71,85.95 
					"/>
		<path class="st3" d="M8.44,80.09l1.29,1.64l2.7-2.24c0,0,0.34-0.11,0.26,0.37c-0.07,0.48-0.11,3.56-0.11,3.56l1.21,0.84l4.45-6.13
			l-1.56-1.3l-1.62,2.27l0.24-2.92l-0.91-0.87L8.44,80.09z"/>
		<path class="st3" d="M19.03,81.17l0.49-1.38c0,0,0.21-0.78,0.76-0.75c0.56,0.04,0.52,0.48,0.46,0.93
			c-0.01,0.12-0.07,0.58-0.13,1.19H19.03z M20.08,85.95h2.07v-6.57c0,0-0.09-1.4-1.51-1.49c-1.41-0.09-2.04,0.89-2.04,0.89
			l-3.11,6.2l1.94,0.67l1.14-3.2h1.9C20.29,84.1,20.08,85.95,20.08,85.95"/>
		<path class="st3" d="M33.95,84.29L33.95,84.29c-0.52,0-0.94-0.42-0.94-0.94v-2.62c0-0.52,0.42-0.94,0.94-0.94
			c0.52,0,0.94,0.42,0.94,0.94v2.62C34.89,83.87,34.47,84.29,33.95,84.29 M33.86,78.13h0.18c1.29,0,2.35,1.06,2.35,2.35v3.12
			c0,1.29-1.06,2.35-2.35,2.35h-0.18c-1.29,0-2.35-1.06-2.35-2.35v-3.12C31.52,79.19,32.57,78.13,33.86,78.13"/>
		<path class="st3" d="M25.6,78.13h0.18c1.29,0,2.35,1.06,2.35,2.35v0.55h-1.5v-0.3c0-0.52-0.42-0.94-0.94-0.94
			c-0.52,0-0.94,0.42-0.94,0.94v2.62c0,0.52,0.42,0.94,0.94,0.94c0.52,0,0.94-0.42,0.94-0.94v-0.3h1.5v0.55
			c0,1.29-1.06,2.35-2.35,2.35H25.6c-1.29,0-2.35-1.06-2.35-2.35v-3.12C23.25,79.19,24.31,78.13,25.6,78.13"/>
		<rect x="28.95" y="78.13" class="st3" width="1.52" height="7.82"/>
		<polygon class="st3" points="42.9,78.13 42.9,85.95 41.91,85.95 41.52,85.95 40.52,85.95 38.75,80.01 38.75,85.95 37.36,85.95 
			37.36,78.13 38.18,78.13 38.75,78.13 39.57,78.13 41.52,84.64 41.52,78.13 		"/>
		<path class="st3" d="M59.22,79.36l2.08,4.24l1.81-0.96c0,0,0.48-0.23-0.05-0.85c-0.53-0.62-2.2-2.66-2.2-2.66s-0.37-0.5-0.92-0.21
			C59.41,79.19,59.22,79.36,59.22,79.36 M60.22,85.6l4.86-2.14c0,0,0.59-0.95-0.05-1.72c-0.64-0.78-3.93-3.96-3.93-3.96
			s-1.12-0.6-2.09-0.25c-0.98,0.36-1.69,0.92-1.69,0.92L60.22,85.6z"/>
		<path class="st3" d="M61.22,76.75l5.96,5.4c0,0,2.2-1.86,3.66-4.53l-1.38-1.13c0,0-0.91,2.05-2.11,3.12l-1.19-1.01l0.74-0.94
			l-1.32-1.19c0,0-0.49,0.57-0.82,0.93l-1.12-0.96l1.35-1.55l-1.23-1.04C63.77,73.85,62.79,75.2,61.22,76.75"/>
	</g>
	<path id="Circulo_celeste_00000144321169431706353020000011924743866557526963_" class="st4" d="M39.05,31.25
		c8.34-0.04,15.14,6.54,15.18,14.7c0.04,8.16-6.7,14.81-15.04,14.84c-8.34,0.04-15.14-6.54-15.18-14.7
		C23.97,37.94,30.71,31.29,39.05,31.25"/>
	<path id="Engranaje_00000041268670043768059150000013759895932183033734_" class="st5" d="M39.23,30.1c0.99,0,1.96,0.08,2.91,0.24
		l0.76-2.5l2.94,0.83L45.2,31.2c0.8,0.31,1.57,0.69,2.3,1.12l1.51-1.97l2.46,1.83l-1.39,2.01c0.65,0.59,1.26,1.22,1.81,1.91
		l1.96-1.22l1.66,2.59l-1.88,1.3c0.41,0.79,0.75,1.63,1.02,2.49l2.14-0.41l0.65,3.02l-2.15,0.53c0.04,0.48,0.07,0.98,0.07,1.47
		c0,0.42-0.01,0.83-0.04,1.24l2.15,0.38l-0.45,3.06l-2.26-0.28c-0.25,0.87-0.57,1.7-0.96,2.5l1.98,1.18l-1.49,2.7l-2.17-1.15
		c-0.53,0.69-1.11,1.33-1.74,1.92l1.56,1.96l-2.33,1.99l-1.76-2.01c-0.71,0.44-1.45,0.83-2.22,1.15l0.83,2.57l-2.88,1.03l-1-2.65
		c-0.84,0.17-1.69,0.28-2.58,0.32l-0.16,2.82l-3.05-0.1l0.02-2.89c-0.9-0.14-1.78-0.35-2.63-0.63l-1.18,2.56l-2.8-1.23l1.05-2.63
		c-0.68-0.39-1.32-0.82-1.93-1.29l-1.92,1.93l-2.21-2.14l1.8-2.01c-0.56-0.65-1.06-1.34-1.5-2.07l-2.35,1.06l-1.31-2.79l2.27-1.17
		c-0.3-0.84-0.53-1.71-0.68-2.6L21,48.74l-0.23-3.08l2.48-0.26c0.03-0.95,0.15-1.89,0.35-2.79l-2.31-0.78l0.9-2.95l2.41,0.68
		c0.4-0.89,0.88-1.74,1.43-2.53l-1.9-1.64l1.92-2.4l2.06,1.6c0.64-0.61,1.32-1.17,2.05-1.67l-1.23-2.3l2.65-1.54l1.39,2.31
		c0.84-0.36,1.72-0.65,2.63-0.86l-0.31-2.66l3.03-0.43l0.44,2.68C38.91,30.1,39.07,30.1,39.23,30.1 M39.24,32.3
		c7.7-0.03,13.97,6.05,14.01,13.59c0.04,7.54-6.18,13.69-13.88,13.73c-7.7,0.04-13.97-6.05-14.01-13.59
		C25.33,38.48,31.54,32.33,39.24,32.3"/>
	<g id="Mapa_00000117670626889692958680000012687211514695918233_">
		<path class="st6" d="M50.7,49.03l-6.26-4.47l0.2-0.46l1.11-0.01l0.56,1l0.59,0.09l0.98-0.55l-0.13-2.41l0.48-0.55l-0.21-0.7
			l-0.85-0.93l-1.92-0.01l0,0.76h-0.19v0.11l-0.26,0.26h-0.05c-0.12,0-0.25,0.12-0.25,0.24l-0.01,0.06
			c-0.04,0.07-0.23,0.43-0.48,0.43c-0.16,0-0.44,0-0.64,0l-1.94,0.01l-0.48,0.16l-0.03-0.02c-0.01-0.07-0.04-0.14-0.06-0.21
			l0.54-0.17l1.97-0.01c0.2,0,0.48,0,0.64,0c0.05,0,0.17-0.13,0.24-0.27c0.02-0.22,0.22-0.42,0.44-0.45l0.11-0.11v-0.26H45l0-0.51
			l-1.46-0.01l-1.09-0.93l-0.69-0.67l-1.35,0.66l-0.78-0.05l-0.54,0.44l-0.23-0.92l0.06-1.17l-0.31-0.16L38.17,37l-0.5-0.48
			l-1.91,0.06l-1.42-1.39l-0.83,0l-1.08,0.17l0.22,1.32c0.25,0,0.51,0,0.76,0l0.63,0c0,0,0,0,0,0c0.33,0,0.62,0.34,0.83,0.6
			c0.05,0.06,0.09,0.11,0.13,0.14c0.27,0.27,0.49,0.59,0.71,0.89c0.21,0.3,0.43,0.61,0.69,0.87c0.09,0.09,0.29,0.04,0.49,0
			c0.25-0.05,0.53-0.11,0.72,0.05c0.13,0.11,0.2,0.29,0.2,0.56c0,0.12,0,0.24,0,0.36c-0.01,0.51-0.01,0.99,0.16,1.29
			c-0.05,0.07-0.1,0.15-0.14,0.23c-0.29-0.36-0.28-0.93-0.27-1.53c0-0.12,0-0.24,0-0.35c0-0.19-0.04-0.31-0.11-0.37
			c-0.1-0.08-0.31-0.04-0.51,0c-0.25,0.05-0.54,0.11-0.73-0.07c-0.27-0.27-0.5-0.59-0.71-0.9c-0.21-0.3-0.43-0.61-0.68-0.86
			c-0.04-0.04-0.09-0.1-0.14-0.16c-0.16-0.19-0.42-0.51-0.63-0.51c0,0,0,0,0,0l-0.63,0c-0.26,0-0.54,0-0.8,0l-0.16,0.92l1.14,1.32
			l1.93,0.77l0.7,1.02l-0.28,0.94l-0.69,0l-0.25,1.18l-2.57-0.09l0.29,1.62l-0.74,0.33l0.05,0.87l0.85,0.94l-4.36,4.13
			c-0.07,0.07-0.08,0.18-0.01,0.26c0.04,0.04,0.09,0.06,0.14,0.06c0.04,0,0.08-0.01,0.12-0.04l4.05-3.21l0.77,0.64
			c0.05,0.55,0.69,1.09,0.16,1.64L33.8,51l0.68,0.38l0.49,1.52c0,0,0.26,0.14,0.63,0.33l0.14,0.07l0,0.01l-0.84,2.95l3.25-1.39
			l0.01,0.16l0,0c0,0.01,0,0.02,0,0.03l0,0.04l0,0c0.03,0.41,0.07,0.74,0.1,1.17l1.01-0.06l0.15-0.01l2.18-0.13l0.13-0.42l0.05-0.15
			l0.33,0.15l0,0.17l0.02,0.64l0.39-0.44l0.11-0.12l0.45,0.21l0.78,0.37L44,56.41l1-0.73l-0.11-0.98l0.84-0.92l0.08-1.44l-0.5-0.58
			l-0.28-1.04l-1.05-2.16l-0.07-2.19c0.03-0.03,0.06-0.05,0.09-0.08c0.15-0.14,0.29-0.29,0.43-0.45l6.06,3.5
			c0.03,0.02,0.06,0.02,0.09,0.02c0.06,0,0.12-0.03,0.16-0.09C50.8,49.2,50.78,49.09,50.7,49.03z"/>
	</g>
	<path id="Compas_y_torre_00000105386977430689237890000013388179516713445523_" class="st7" d="M50.65,49.1l-9.81-7.01
		c-0.11-0.71-0.75-1.23-1.53-1.23c-0.83,0-1.51,0.63-1.53,1.41l-3.14,2.95c-0.13-0.14-0.26-0.28-0.39-0.43
		c-0.02-0.02-0.04-0.03-0.06-0.03c0,0-0.01,0-0.01,0c-0.02,0-0.04,0.01-0.06,0.02l-1.14,0.96c-0.02,0.02-0.03,0.04-0.03,0.06
		c0,0.03,0.01,0.05,0.02,0.07c0.14,0.16,0.29,0.32,0.46,0.48l-4.86,4.6c-0.04,0.03-0.04,0.09-0.01,0.13
		c0.02,0.02,0.04,0.03,0.07,0.03c0.02,0,0.04-0.01,0.06-0.02l5.32-4.21c0.91,0.74,1.91,1.23,2.97,1.48l-1.39,4.88
		c0.04,0.02,0.09,0.05,0.14,0.07l0.13-0.46l3.32,1.58l-1.04,0.44c0,0.06,0.01,0.11,0.01,0.16l1.11-0.47l0.01,1.64l0.15-0.01
		l-0.01-1.65l2.31,1.1l0.04-0.15l-2.22-1.05l3.27-1.39l1.02,3.43L44,56.41l-2.53-8.5c0.88-0.39,1.71-0.95,2.46-1.68
		c0.16-0.16,0.32-0.33,0.48-0.5l6.13,3.53c0.01,0.01,0.03,0.01,0.05,0.01c0.03,0,0.06-0.02,0.08-0.04
		C50.7,49.19,50.69,49.13,50.65,49.1z M37.64,47.02c-0.03-0.01-0.06-0.01-0.1-0.02l0.44-1.54l1.26,0.76l0,0.01L37.64,47.02z
		 M39.24,46.38l0,0.76c-0.13,0.01-0.26,0.02-0.39,0.02c-0.34,0-0.68-0.04-1.02-0.11L39.24,46.38z M38.03,45.3l0.25-0.88l0.88,0.44
		l-1.03,0.5L38.03,45.3z M38.27,45.45l0.96-0.47l0,1.06L38.27,45.45z M38.32,44.27l0.21-0.75c0.21,0.12,0.45,0.19,0.7,0.2l0,1
		L38.32,44.27z M35.34,45.86l3.03-2.32l-0.97,3.41C36.68,46.74,35.98,46.38,35.34,45.86z M37.15,48.39c0.47,0.1,0.94,0.16,1.43,0.16
		c0.23,0,0.45-0.01,0.68-0.04l0.01,2.47l-2.48-1.31L37.15,48.39z M36.74,49.82l2.39,1.26l-3.19,1.55L36.74,49.82z M36.04,52.76
		l3.22-1.57l0.01,3.11L36.04,52.76z M38.72,42.29c0-0.33,0.27-0.59,0.59-0.59s0.59,0.27,0.59,0.59c0,0.33-0.27,0.59-0.59,0.59
		S38.72,42.62,38.72,42.29z M39.38,43.73c0.23-0.01,0.44-0.07,0.64-0.16l0.23,0.76l0.01,0l0.01,0.06l-0.02-0.05l-0.86,0.42
		L39.38,43.73z M40.29,44.46l0.28,0.94l-1.08-0.54L40.29,44.46z M39.39,44.98l1.1,0.55l-1.08,0.6l-0.01-0.01L39.39,44.98z
		 M40.63,45.61l0.33,1.12c-0.12,0.05-0.23,0.1-0.35,0.14l-1.07-0.65L40.63,45.61z M39.4,46.31l1.02,0.62
		c-0.33,0.1-0.67,0.17-1.01,0.21L39.4,46.31z M39.43,54.33l-0.01-3.09l3.25,1.72L39.43,54.33z M42.78,52.84l-3.31-1.75l2.44-1.19
		L42.78,52.84z M41.75,49.38l0.11,0.37l-2.45,1.19l-0.01-2.45c0.19-0.02,0.39-0.05,0.58-0.09L41.75,49.38L41.75,49.38z M41.7,49.2
		l-1.52-0.85c0.39-0.09,0.78-0.22,1.15-0.37L41.7,49.2z M41.11,46.67l-0.94-3.18c0.06-0.04,0.12-0.07,0.17-0.12l2.98,1.72
		C42.65,45.79,41.9,46.32,41.11,46.67z"/>
</g>
</svg>
